# xmcd
#
# Track frame offsets:
#	150
#	12991
#	33152
#	49637
#	66588
#	87501
#	104764
#	124335
#	141921
#	157152
#	174558
#	191041
#	207036
#	221252
#	237690
#	255694
#	272941
#	286184
#
# Disc length: 4037 seconds
# Revision: 0
# Processed by: cddbd v1.5.1PL0 Copyright (c) Steve Scherf et al.
# Submitted via: cdrLabel 7.1
#
DISCID=1c0fc312
DTITLE=Lee Ann Rimes - Best Of
DYEAR=1900
DGENRE=
TTITLE0=Can't Fight The Moonlight
TTITLE1=Life Goes On
TTITLE2=How Do I Live
TTITLE3=I Need You
TTITLE4=We Can
TTITLE5=Last Thing On My Mind (Feat. Ronan)
TTITLE6=This Love
TTITLE7=But I Do Love You
TTITLE8=Written In The Stars (Feat. Elton)
TTITLE9=Suddenly
TTITLE10=The Right Kind Of Wrong
TTITLE11=Commitment
TTITLE12=Please Remember
TTITLE13=Crazy
TTITLE14=Blue
TTITLE15=Looking Through Your Eyes
TTITLE16=You Light Up My Life
TTITLE17=One Way Ticket (Because I Can)
EXTD=
EXTT0=
EXTT1=
EXTT2=
EXTT3=
EXTT4=
EXTT5=
EXTT6=
EXTT7=
EXTT8=
EXTT9=
EXTT10=
EXTT11=
EXTT12=
EXTT13=
EXTT14=
EXTT15=
EXTT16=
EXTT17=
PLAYORDER=
